<mxfile host="65bd71144e">
    <diagram id="fPoR3QSPDVf2IuzDTh9m" name="Page-1">
        <mxGraphModel dx="758" dy="559" grid="1" gridSize="10" guides="1" tooltips="1" connect="1" arrows="1" fold="1" page="1" pageScale="1" pageWidth="850" pageHeight="1100" math="0" shadow="0">
            <root>
                <mxCell id="0"/>
                <mxCell id="1" parent="0"/>
                <mxCell id="12" style="edgeStyle=none;html=1;entryX=0;entryY=0.5;entryDx=0;entryDy=0;strokeColor=default;curved=1;endArrow=none;endFill=0;" edge="1" parent="1" source="3" target="6">
                    <mxGeometry relative="1" as="geometry">
                        <Array as="points">
                            <mxPoint x="170" y="200"/>
                        </Array>
                    </mxGeometry>
                </mxCell>
                <mxCell id="13" style="edgeStyle=none;curved=1;html=1;entryX=0;entryY=0.5;entryDx=0;entryDy=0;strokeColor=default;endArrow=none;endFill=0;" edge="1" parent="1" source="3" target="4">
                    <mxGeometry relative="1" as="geometry">
                        <Array as="points">
                            <mxPoint x="260" y="80"/>
                        </Array>
                    </mxGeometry>
                </mxCell>
                <mxCell id="3" value="1" style="ellipse;whiteSpace=wrap;html=1;aspect=fixed;strokeWidth=3;fontSize=23;fillColor=#0050ef;fontColor=#ffffff;strokeColor=#001DBC;" vertex="1" parent="1">
                    <mxGeometry x="140" y="90" width="60" height="60" as="geometry"/>
                </mxCell>
                <mxCell id="14" style="edgeStyle=none;curved=1;html=1;entryX=1;entryY=0;entryDx=0;entryDy=0;strokeColor=default;endArrow=none;endFill=0;" edge="1" parent="1" source="4" target="6">
                    <mxGeometry relative="1" as="geometry">
                        <Array as="points">
                            <mxPoint x="350" y="200"/>
                        </Array>
                    </mxGeometry>
                </mxCell>
                <mxCell id="15" style="edgeStyle=none;curved=1;html=1;entryX=0;entryY=0;entryDx=0;entryDy=0;strokeColor=default;endArrow=none;endFill=0;" edge="1" parent="1" source="4" target="5">
                    <mxGeometry relative="1" as="geometry">
                        <Array as="points">
                            <mxPoint x="460" y="70"/>
                        </Array>
                    </mxGeometry>
                </mxCell>
                <mxCell id="4" value="2" style="ellipse;whiteSpace=wrap;html=1;aspect=fixed;strokeWidth=3;fontSize=23;fillColor=#0050ef;fontColor=#ffffff;strokeColor=#001DBC;" vertex="1" parent="1">
                    <mxGeometry x="330" y="70" width="60" height="60" as="geometry"/>
                </mxCell>
                <mxCell id="17" style="edgeStyle=none;curved=1;html=1;entryX=1;entryY=0.5;entryDx=0;entryDy=0;strokeColor=default;endArrow=none;endFill=0;" edge="1" parent="1" source="5" target="6">
                    <mxGeometry relative="1" as="geometry">
                        <Array as="points">
                            <mxPoint x="410" y="240"/>
                        </Array>
                    </mxGeometry>
                </mxCell>
                <mxCell id="5" value="3" style="ellipse;whiteSpace=wrap;html=1;aspect=fixed;strokeWidth=3;fontSize=23;fillColor=#0050ef;fontColor=#ffffff;strokeColor=#001DBC;" vertex="1" parent="1">
                    <mxGeometry x="510" y="120" width="60" height="60" as="geometry"/>
                </mxCell>
                <mxCell id="6" value="4" style="ellipse;whiteSpace=wrap;html=1;aspect=fixed;strokeWidth=3;fontSize=23;fillColor=#0050ef;fontColor=#ffffff;strokeColor=#001DBC;" vertex="1" parent="1">
                    <mxGeometry x="220" y="230" width="60" height="60" as="geometry"/>
                </mxCell>
                <mxCell id="18" style="edgeStyle=none;curved=1;html=1;entryX=0.5;entryY=1;entryDx=0;entryDy=0;strokeColor=default;endArrow=none;endFill=0;" edge="1" parent="1" source="7" target="5">
                    <mxGeometry relative="1" as="geometry">
                        <Array as="points">
                            <mxPoint x="520" y="250"/>
                        </Array>
                    </mxGeometry>
                </mxCell>
                <mxCell id="7" value="5" style="ellipse;whiteSpace=wrap;html=1;aspect=fixed;strokeWidth=3;fontSize=23;fillColor=#0050ef;fontColor=#ffffff;strokeColor=#001DBC;" vertex="1" parent="1">
                    <mxGeometry x="340" y="300" width="60" height="60" as="geometry"/>
                </mxCell>
                <mxCell id="87" value="" style="shape=table;html=1;whiteSpace=wrap;startSize=0;container=1;collapsible=0;childLayout=tableLayout;strokeWidth=3;fontSize=23;rowLines=1;arcSize=15;treeFolding=0;rotation=0;" vertex="1" parent="1">
                    <mxGeometry x="510" y="300" width="288" height="288" as="geometry"/>
                </mxCell>
                <mxCell id="135" style="shape=tableRow;horizontal=0;startSize=0;swimlaneHead=0;swimlaneBody=0;top=0;left=0;bottom=0;right=0;collapsible=0;dropTarget=0;fillColor=none;points=[[0,0.5],[1,0.5]];portConstraint=eastwest;strokeWidth=3;fontSize=23;" vertex="1" parent="87">
                    <mxGeometry width="288" height="48" as="geometry"/>
                </mxCell>
                <mxCell id="136" style="shape=partialRectangle;html=1;whiteSpace=wrap;connectable=0;fillColor=none;top=0;left=0;bottom=0;right=0;overflow=hidden;strokeWidth=3;fontSize=23;" vertex="1" parent="135">
                    <mxGeometry width="48" height="48" as="geometry">
                        <mxRectangle width="48" height="48" as="alternateBounds"/>
                    </mxGeometry>
                </mxCell>
                <mxCell id="137" style="shape=partialRectangle;html=1;whiteSpace=wrap;connectable=0;fillColor=none;top=0;left=0;bottom=0;right=0;overflow=hidden;strokeWidth=3;fontSize=23;" vertex="1" parent="135">
                    <mxGeometry x="48" width="48" height="48" as="geometry">
                        <mxRectangle width="48" height="48" as="alternateBounds"/>
                    </mxGeometry>
                </mxCell>
                <mxCell id="138" style="shape=partialRectangle;html=1;whiteSpace=wrap;connectable=0;fillColor=none;top=0;left=0;bottom=0;right=0;overflow=hidden;strokeWidth=3;fontSize=23;" vertex="1" parent="135">
                    <mxGeometry x="96" width="48" height="48" as="geometry">
                        <mxRectangle width="48" height="48" as="alternateBounds"/>
                    </mxGeometry>
                </mxCell>
                <mxCell id="139" style="shape=partialRectangle;html=1;whiteSpace=wrap;connectable=0;fillColor=none;top=0;left=0;bottom=0;right=0;overflow=hidden;strokeWidth=3;fontSize=23;" vertex="1" parent="135">
                    <mxGeometry x="144" width="48" height="48" as="geometry">
                        <mxRectangle width="48" height="48" as="alternateBounds"/>
                    </mxGeometry>
                </mxCell>
                <mxCell id="140" style="shape=partialRectangle;html=1;whiteSpace=wrap;connectable=0;fillColor=none;top=0;left=0;bottom=0;right=0;overflow=hidden;strokeWidth=3;fontSize=23;" vertex="1" parent="135">
                    <mxGeometry x="192" width="48" height="48" as="geometry">
                        <mxRectangle width="48" height="48" as="alternateBounds"/>
                    </mxGeometry>
                </mxCell>
                <mxCell id="141" style="shape=partialRectangle;html=1;whiteSpace=wrap;connectable=0;fillColor=none;top=0;left=0;bottom=0;right=0;overflow=hidden;strokeWidth=3;fontSize=23;" vertex="1" parent="135">
                    <mxGeometry x="240" width="48" height="48" as="geometry">
                        <mxRectangle width="48" height="48" as="alternateBounds"/>
                    </mxGeometry>
                </mxCell>
                <mxCell id="122" style="shape=tableRow;horizontal=0;startSize=0;swimlaneHead=0;swimlaneBody=0;top=0;left=0;bottom=0;right=0;collapsible=0;dropTarget=0;fillColor=none;points=[[0,0.5],[1,0.5]];portConstraint=eastwest;strokeWidth=3;fontSize=23;" vertex="1" parent="87">
                    <mxGeometry y="48" width="288" height="48" as="geometry"/>
                </mxCell>
                <mxCell id="123" style="shape=partialRectangle;html=1;whiteSpace=wrap;connectable=0;fillColor=none;top=0;left=0;bottom=0;right=0;overflow=hidden;strokeWidth=3;fontSize=23;" vertex="1" parent="122">
                    <mxGeometry width="48" height="48" as="geometry">
                        <mxRectangle width="48" height="48" as="alternateBounds"/>
                    </mxGeometry>
                </mxCell>
                <mxCell id="124" style="shape=partialRectangle;html=1;whiteSpace=wrap;connectable=0;fillColor=none;top=0;left=0;bottom=0;right=0;overflow=hidden;strokeWidth=3;fontSize=23;" vertex="1" parent="122">
                    <mxGeometry x="48" width="48" height="48" as="geometry">
                        <mxRectangle width="48" height="48" as="alternateBounds"/>
                    </mxGeometry>
                </mxCell>
                <mxCell id="125" style="shape=partialRectangle;html=1;whiteSpace=wrap;connectable=0;fillColor=none;top=0;left=0;bottom=0;right=0;overflow=hidden;strokeWidth=3;fontSize=23;" vertex="1" parent="122">
                    <mxGeometry x="96" width="48" height="48" as="geometry">
                        <mxRectangle width="48" height="48" as="alternateBounds"/>
                    </mxGeometry>
                </mxCell>
                <mxCell id="126" style="shape=partialRectangle;html=1;whiteSpace=wrap;connectable=0;fillColor=none;top=0;left=0;bottom=0;right=0;overflow=hidden;strokeWidth=3;fontSize=23;" vertex="1" parent="122">
                    <mxGeometry x="144" width="48" height="48" as="geometry">
                        <mxRectangle width="48" height="48" as="alternateBounds"/>
                    </mxGeometry>
                </mxCell>
                <mxCell id="127" style="shape=partialRectangle;html=1;whiteSpace=wrap;connectable=0;fillColor=none;top=0;left=0;bottom=0;right=0;overflow=hidden;strokeWidth=3;fontSize=23;" vertex="1" parent="122">
                    <mxGeometry x="192" width="48" height="48" as="geometry">
                        <mxRectangle width="48" height="48" as="alternateBounds"/>
                    </mxGeometry>
                </mxCell>
                <mxCell id="130" style="shape=partialRectangle;html=1;whiteSpace=wrap;connectable=0;fillColor=none;top=0;left=0;bottom=0;right=0;overflow=hidden;strokeWidth=3;fontSize=23;" vertex="1" parent="122">
                    <mxGeometry x="240" width="48" height="48" as="geometry">
                        <mxRectangle width="48" height="48" as="alternateBounds"/>
                    </mxGeometry>
                </mxCell>
                <mxCell id="116" style="shape=tableRow;horizontal=0;startSize=0;swimlaneHead=0;swimlaneBody=0;top=0;left=0;bottom=0;right=0;collapsible=0;dropTarget=0;fillColor=none;points=[[0,0.5],[1,0.5]];portConstraint=eastwest;strokeWidth=3;fontSize=23;" vertex="1" parent="87">
                    <mxGeometry y="96" width="288" height="48" as="geometry"/>
                </mxCell>
                <mxCell id="117" style="shape=partialRectangle;html=1;whiteSpace=wrap;connectable=0;fillColor=none;top=0;left=0;bottom=0;right=0;overflow=hidden;strokeWidth=3;fontSize=23;" vertex="1" parent="116">
                    <mxGeometry width="48" height="48" as="geometry">
                        <mxRectangle width="48" height="48" as="alternateBounds"/>
                    </mxGeometry>
                </mxCell>
                <mxCell id="118" style="shape=partialRectangle;html=1;whiteSpace=wrap;connectable=0;fillColor=none;top=0;left=0;bottom=0;right=0;overflow=hidden;strokeWidth=3;fontSize=23;" vertex="1" parent="116">
                    <mxGeometry x="48" width="48" height="48" as="geometry">
                        <mxRectangle width="48" height="48" as="alternateBounds"/>
                    </mxGeometry>
                </mxCell>
                <mxCell id="119" style="shape=partialRectangle;html=1;whiteSpace=wrap;connectable=0;fillColor=none;top=0;left=0;bottom=0;right=0;overflow=hidden;strokeWidth=3;fontSize=23;" vertex="1" parent="116">
                    <mxGeometry x="96" width="48" height="48" as="geometry">
                        <mxRectangle width="48" height="48" as="alternateBounds"/>
                    </mxGeometry>
                </mxCell>
                <mxCell id="120" style="shape=partialRectangle;html=1;whiteSpace=wrap;connectable=0;fillColor=none;top=0;left=0;bottom=0;right=0;overflow=hidden;strokeWidth=3;fontSize=23;" vertex="1" parent="116">
                    <mxGeometry x="144" width="48" height="48" as="geometry">
                        <mxRectangle width="48" height="48" as="alternateBounds"/>
                    </mxGeometry>
                </mxCell>
                <mxCell id="121" style="shape=partialRectangle;html=1;whiteSpace=wrap;connectable=0;fillColor=none;top=0;left=0;bottom=0;right=0;overflow=hidden;strokeWidth=3;fontSize=23;" vertex="1" parent="116">
                    <mxGeometry x="192" width="48" height="48" as="geometry">
                        <mxRectangle width="48" height="48" as="alternateBounds"/>
                    </mxGeometry>
                </mxCell>
                <mxCell id="131" style="shape=partialRectangle;html=1;whiteSpace=wrap;connectable=0;fillColor=none;top=0;left=0;bottom=0;right=0;overflow=hidden;strokeWidth=3;fontSize=23;" vertex="1" parent="116">
                    <mxGeometry x="240" width="48" height="48" as="geometry">
                        <mxRectangle width="48" height="48" as="alternateBounds"/>
                    </mxGeometry>
                </mxCell>
                <mxCell id="110" style="shape=tableRow;horizontal=0;startSize=0;swimlaneHead=0;swimlaneBody=0;top=0;left=0;bottom=0;right=0;collapsible=0;dropTarget=0;fillColor=none;points=[[0,0.5],[1,0.5]];portConstraint=eastwest;strokeWidth=3;fontSize=23;" vertex="1" parent="87">
                    <mxGeometry y="144" width="288" height="48" as="geometry"/>
                </mxCell>
                <mxCell id="111" style="shape=partialRectangle;html=1;whiteSpace=wrap;connectable=0;fillColor=none;top=0;left=0;bottom=0;right=0;overflow=hidden;strokeWidth=3;fontSize=23;" vertex="1" parent="110">
                    <mxGeometry width="48" height="48" as="geometry">
                        <mxRectangle width="48" height="48" as="alternateBounds"/>
                    </mxGeometry>
                </mxCell>
                <mxCell id="112" style="shape=partialRectangle;html=1;whiteSpace=wrap;connectable=0;fillColor=none;top=0;left=0;bottom=0;right=0;overflow=hidden;strokeWidth=3;fontSize=23;" vertex="1" parent="110">
                    <mxGeometry x="48" width="48" height="48" as="geometry">
                        <mxRectangle width="48" height="48" as="alternateBounds"/>
                    </mxGeometry>
                </mxCell>
                <mxCell id="113" style="shape=partialRectangle;html=1;whiteSpace=wrap;connectable=0;fillColor=none;top=0;left=0;bottom=0;right=0;overflow=hidden;strokeWidth=3;fontSize=23;" vertex="1" parent="110">
                    <mxGeometry x="96" width="48" height="48" as="geometry">
                        <mxRectangle width="48" height="48" as="alternateBounds"/>
                    </mxGeometry>
                </mxCell>
                <mxCell id="114" style="shape=partialRectangle;html=1;whiteSpace=wrap;connectable=0;fillColor=none;top=0;left=0;bottom=0;right=0;overflow=hidden;strokeWidth=3;fontSize=23;" vertex="1" parent="110">
                    <mxGeometry x="144" width="48" height="48" as="geometry">
                        <mxRectangle width="48" height="48" as="alternateBounds"/>
                    </mxGeometry>
                </mxCell>
                <mxCell id="115" style="shape=partialRectangle;html=1;whiteSpace=wrap;connectable=0;fillColor=none;top=0;left=0;bottom=0;right=0;overflow=hidden;strokeWidth=3;fontSize=23;" vertex="1" parent="110">
                    <mxGeometry x="192" width="48" height="48" as="geometry">
                        <mxRectangle width="48" height="48" as="alternateBounds"/>
                    </mxGeometry>
                </mxCell>
                <mxCell id="132" style="shape=partialRectangle;html=1;whiteSpace=wrap;connectable=0;fillColor=none;top=0;left=0;bottom=0;right=0;overflow=hidden;strokeWidth=3;fontSize=23;" vertex="1" parent="110">
                    <mxGeometry x="240" width="48" height="48" as="geometry">
                        <mxRectangle width="48" height="48" as="alternateBounds"/>
                    </mxGeometry>
                </mxCell>
                <mxCell id="92" value="" style="shape=tableRow;horizontal=0;startSize=0;swimlaneHead=0;swimlaneBody=0;top=0;left=0;bottom=0;right=0;collapsible=0;dropTarget=0;fillColor=none;points=[[0,0.5],[1,0.5]];portConstraint=eastwest;strokeWidth=3;fontSize=23;" vertex="1" parent="87">
                    <mxGeometry y="192" width="288" height="48" as="geometry"/>
                </mxCell>
                <mxCell id="102" style="shape=partialRectangle;html=1;whiteSpace=wrap;connectable=0;fillColor=none;top=0;left=0;bottom=0;right=0;overflow=hidden;strokeWidth=3;fontSize=23;" vertex="1" parent="92">
                    <mxGeometry width="48" height="48" as="geometry">
                        <mxRectangle width="48" height="48" as="alternateBounds"/>
                    </mxGeometry>
                </mxCell>
                <mxCell id="93" value="" style="shape=partialRectangle;html=1;whiteSpace=wrap;connectable=0;fillColor=none;top=0;left=0;bottom=0;right=0;overflow=hidden;strokeWidth=3;fontSize=23;" vertex="1" parent="92">
                    <mxGeometry x="48" width="48" height="48" as="geometry">
                        <mxRectangle width="48" height="48" as="alternateBounds"/>
                    </mxGeometry>
                </mxCell>
                <mxCell id="94" value="&lt;span style=&quot;color: rgba(0, 0, 0, 0); font-family: monospace; font-size: 0px; text-align: start;&quot;&gt;%3CmxGraphModel%3E%3Croot%3E%3CmxCell%20id%3D%220%22%2F%3E%3CmxCell%20id%3D%221%22%20parent%3D%220%22%2F%3E%3CmxCell%20id%3D%222%22%20value%3D%221%22%20style%3D%22connectable%3D0%3BrecursiveResize%3D0%3BstrokeColor%3Dinherit%3BfillColor%3Dnone%3Balign%3Dcenter%3BwhiteSpace%3Dwrap%3Bhtml%3D1%3BstrokeWidth%3D3%3BfontSize%3D23%3B%22%20vertex%3D%221%22%20parent%3D%221%22%3E%3CmxGeometry%20x%3D%22210%22%20y%3D%22330%22%20width%3D%2260%22%20height%3D%2247%22%20as%3D%22geometry%22%3E%3CmxRectangle%20width%3D%2260%22%20height%3D%2247%22%20as%3D%22alternateBounds%22%2F%3E%3C%2FmxGeometry%3E%3C%2FmxCell%3E%3C%2Froot%3E%3C%2FmxGraphModel%3E&lt;/span&gt;" style="shape=partialRectangle;html=1;whiteSpace=wrap;connectable=0;fillColor=none;top=0;left=0;bottom=0;right=0;overflow=hidden;strokeWidth=3;fontSize=23;" vertex="1" parent="92">
                    <mxGeometry x="96" width="48" height="48" as="geometry">
                        <mxRectangle width="48" height="48" as="alternateBounds"/>
                    </mxGeometry>
                </mxCell>
                <mxCell id="104" style="shape=partialRectangle;html=1;whiteSpace=wrap;connectable=0;fillColor=none;top=0;left=0;bottom=0;right=0;overflow=hidden;strokeWidth=3;fontSize=23;" vertex="1" parent="92">
                    <mxGeometry x="144" width="48" height="48" as="geometry">
                        <mxRectangle width="48" height="48" as="alternateBounds"/>
                    </mxGeometry>
                </mxCell>
                <mxCell id="106" style="shape=partialRectangle;html=1;whiteSpace=wrap;connectable=0;fillColor=none;top=0;left=0;bottom=0;right=0;overflow=hidden;strokeWidth=3;fontSize=23;" vertex="1" parent="92">
                    <mxGeometry x="192" width="48" height="48" as="geometry">
                        <mxRectangle width="48" height="48" as="alternateBounds"/>
                    </mxGeometry>
                </mxCell>
                <mxCell id="133" style="shape=partialRectangle;html=1;whiteSpace=wrap;connectable=0;fillColor=none;top=0;left=0;bottom=0;right=0;overflow=hidden;strokeWidth=3;fontSize=23;" vertex="1" parent="92">
                    <mxGeometry x="240" width="48" height="48" as="geometry">
                        <mxRectangle width="48" height="48" as="alternateBounds"/>
                    </mxGeometry>
                </mxCell>
                <mxCell id="96" value="" style="shape=tableRow;horizontal=0;startSize=0;swimlaneHead=0;swimlaneBody=0;top=0;left=0;bottom=0;right=0;collapsible=0;dropTarget=0;fillColor=none;points=[[0,0.5],[1,0.5]];portConstraint=eastwest;strokeWidth=3;fontSize=23;" vertex="1" parent="87">
                    <mxGeometry y="240" width="288" height="48" as="geometry"/>
                </mxCell>
                <mxCell id="103" style="shape=partialRectangle;html=1;whiteSpace=wrap;connectable=0;fillColor=none;top=0;left=0;bottom=0;right=0;overflow=hidden;strokeWidth=3;fontSize=23;" vertex="1" parent="96">
                    <mxGeometry width="48" height="48" as="geometry">
                        <mxRectangle width="48" height="48" as="alternateBounds"/>
                    </mxGeometry>
                </mxCell>
                <mxCell id="97" value="" style="shape=partialRectangle;html=1;whiteSpace=wrap;connectable=0;fillColor=none;top=0;left=0;bottom=0;right=0;overflow=hidden;strokeWidth=3;fontSize=23;" vertex="1" parent="96">
                    <mxGeometry x="48" width="48" height="48" as="geometry">
                        <mxRectangle width="48" height="48" as="alternateBounds"/>
                    </mxGeometry>
                </mxCell>
                <mxCell id="98" value="" style="shape=partialRectangle;html=1;whiteSpace=wrap;connectable=0;fillColor=none;top=0;left=0;bottom=0;right=0;overflow=hidden;strokeWidth=3;fontSize=23;" vertex="1" parent="96">
                    <mxGeometry x="96" width="48" height="48" as="geometry">
                        <mxRectangle width="48" height="48" as="alternateBounds"/>
                    </mxGeometry>
                </mxCell>
                <mxCell id="105" style="shape=partialRectangle;html=1;whiteSpace=wrap;connectable=0;fillColor=none;top=0;left=0;bottom=0;right=0;overflow=hidden;strokeWidth=3;fontSize=23;" vertex="1" parent="96">
                    <mxGeometry x="144" width="48" height="48" as="geometry">
                        <mxRectangle width="48" height="48" as="alternateBounds"/>
                    </mxGeometry>
                </mxCell>
                <mxCell id="107" style="shape=partialRectangle;html=1;whiteSpace=wrap;connectable=0;fillColor=none;top=0;left=0;bottom=0;right=0;overflow=hidden;strokeWidth=3;fontSize=23;" vertex="1" parent="96">
                    <mxGeometry x="192" width="48" height="48" as="geometry">
                        <mxRectangle width="48" height="48" as="alternateBounds"/>
                    </mxGeometry>
                </mxCell>
                <mxCell id="134" style="shape=partialRectangle;html=1;whiteSpace=wrap;connectable=0;fillColor=none;top=0;left=0;bottom=0;right=0;overflow=hidden;strokeWidth=3;fontSize=23;" vertex="1" parent="96">
                    <mxGeometry x="240" width="48" height="48" as="geometry">
                        <mxRectangle width="48" height="48" as="alternateBounds"/>
                    </mxGeometry>
                </mxCell>
                <mxCell id="129" style="edgeStyle=none;curved=1;html=1;entryX=0;entryY=1;entryDx=0;entryDy=0;strokeColor=default;fontSize=23;endArrow=none;endFill=0;startSize=0;" edge="1" parent="1" source="128" target="3">
                    <mxGeometry relative="1" as="geometry">
                        <Array as="points">
                            <mxPoint x="110" y="140"/>
                        </Array>
                    </mxGeometry>
                </mxCell>
                <mxCell id="128" value="0" style="ellipse;whiteSpace=wrap;html=1;aspect=fixed;strokeWidth=3;fontSize=23;fillColor=#0050ef;fontColor=#ffffff;strokeColor=#001DBC;" vertex="1" parent="1">
                    <mxGeometry x="50" y="170" width="60" height="60" as="geometry"/>
                </mxCell>
            </root>
        </mxGraphModel>
    </diagram>
</mxfile>